<svg width="180" height="38" viewBox="0 0 180 38" fill="none" xmlns="http://www.w3.org/2000/svg">
<path d="M75.8346 0H67.0649V6.10978H77.5752L75.8346 0ZM83.6504 0L81.91 6.10978H92.4199V0H83.6504ZM79.7432 13.7202L77.9558 7.44812H67.0649V14.6068H73.5689L73.5585 9.96062L75.0623 14.6068H84.3521L85.8663 10.0223L85.8764 14.6068H92.4199V7.44812H81.5286L79.7433 13.7202H79.7432ZM67.0649 15.9439V22.0002H73.5881L73.5727 15.9439H67.0649ZM77.219 21.2676L82.1424 21.297L83.9107 15.9439H75.4949L77.219 21.2676ZM85.8968 22.0002H92.4199V15.9439H85.8805L85.8968 22.0002Z" fill="white"/>
<path d="M122.511 5.13322H133.312V0H115.25V6.10978H122.511V5.13322ZM122.511 13.4141H132.02L131.959 8.28091H122.511V7.44813H115.25V14.6069H122.511V13.4141ZM100.941 0H93.679V6.10978H100.941V0ZM37.0916 7.45627C37.0916 8.37211 36.8151 9.04492 36.2609 9.4712C35.7865 9.83919 35.091 10.0223 34.1689 10.0223H31.153V7.44813H23.8913V14.6069H39.0106C40.1388 14.2601 41.0816 13.7526 41.8302 13.0779C43.284 11.7799 44.0095 9.89881 44.0137 7.44811H37.0905C37.0905 7.45127 37.0916 7.45311 37.0916 7.45627ZM148.85 7.44813C148.85 7.45129 148.851 7.45311 148.851 7.45627C148.851 8.37211 148.576 9.04492 148.021 9.4712C147.548 9.83919 146.852 10.0223 145.929 10.0223H142.913V7.44813H135.65V14.6069H150.77C151.899 14.2601 152.84 13.7526 153.589 13.0779C155.044 11.7799 155.768 9.89881 155.774 7.44811L148.85 7.44813ZM142.913 5.13322H144.974C146.02 5.13322 146.864 5.26791 147.497 5.53048C147.856 5.68339 148.139 5.87782 148.355 6.10978H155.674C155.426 4.41304 154.685 3.04529 153.436 2.017C151.794 0.671615 149.424 0 146.329 0H135.65V6.10978H142.913V5.13322ZM108.957 7.44813H93.679V14.6069H100.941V11.9767H103.956C104.881 11.9767 105.576 12.161 106.05 12.5278C106.603 12.9553 106.88 13.6279 106.88 14.5439C106.88 14.5663 106.876 14.5853 106.876 14.6069H113.801C113.801 14.5953 113.803 14.5854 113.803 14.5742C113.803 12.1126 113.077 10.2241 111.618 8.92141C110.906 8.27884 110.014 7.79267 108.957 7.44813ZM13.7361 14.6069H20.9978V7.44813H13.7361V14.6069ZM52.7229 5.13322H63.5239V0H45.4623V6.10978H52.7229V5.13322ZM52.7229 13.4141H62.2313L62.1688 8.28091H52.7229V7.44813H45.4623V14.6069H52.7229V13.4141ZM105.525 16.4697C104.892 16.7321 104.048 16.8658 103.004 16.8658H100.941V15.9439H93.679V22.0002H104.356C107.453 22.0002 109.822 21.3274 111.464 19.9841C112.699 18.9661 113.438 17.6154 113.695 15.9439H106.334C106.123 16.1545 105.856 16.3289 105.525 16.4697ZM31.153 5.13324H33.2138C34.2606 5.13324 35.1031 5.26793 35.7377 5.5305C36.0957 5.68341 36.3806 5.87784 36.5967 6.1098H43.9136C43.6657 4.41306 42.9238 3.04531 41.6772 2.01702C40.0328 0.671636 37.6637 2.09239e-05 34.5685 2.09239e-05H23.8913V6.1098H31.153L31.153 5.13324ZM135.65 22.0002H142.913V15.9439H135.65V22.0002ZM122.511 15.9439H115.25V22.0002H133.742V16.8658H122.511V15.9439ZM0 14.6069H7.26172V7.44816H0V14.6069ZM0 22.0002H7.26172V15.9439H0V22.0002ZM7.26172 2.09239e-05H0V5.13324V6.1098H7.26172V5.13324H13.7361V6.1098H20.9978V5.13324V2.09239e-05H13.7361H7.26172ZM13.7361 22.0002H20.9978V15.9439H13.7361V22.0002ZM23.8913 22.0002H31.153V15.9439H23.8913V22.0002ZM52.7229 15.9439H45.4623V22.0002H63.9543V16.8658H52.7229V15.9439Z" fill="#1D0C03"/>
<path d="M2.10709e-05 27.5084H1.3836L4.78686 33.8518L7.74507 27.5084H9.09954L5.20769 35.5356C4.72154 36.5396 4.32235 37.1977 4.01036 37.5077C3.69836 37.8175 3.25332 37.9712 2.67276 37.9712C2.31967 37.9712 1.8866 37.8895 1.37148 37.7262V36.5588C1.73913 36.7702 2.12852 36.8759 2.5397 36.8759C2.87358 36.8759 3.16135 36.7678 3.40571 36.5541C3.6475 36.3403 3.91607 35.8527 4.20874 35.0913L0 27.5084L2.10709e-05 27.5084ZM17.6742 34.2073L19.053 34.5532C18.7651 35.6749 18.2475 36.5276 17.5 37.1161C16.7526 37.7045 15.8383 38 14.7572 38C13.6396 38 12.7302 37.7742 12.0288 37.3203C11.3273 36.8687 10.7951 36.213 10.4299 35.3555C10.0646 34.4956 9.88081 33.5757 9.88081 32.5908C9.88081 31.5172 10.0864 30.5804 10.5 29.7806C10.9136 28.9807 11.5014 28.3731 12.2634 27.9575C13.0253 27.542 13.8646 27.3354 14.779 27.3354C15.819 27.3354 16.6922 27.5973 17.3985 28.1233C18.1073 28.6493 18.6006 29.3867 18.8789 30.3379L17.5291 30.6548C17.2897 29.9055 16.9389 29.3579 16.4818 29.0167C16.0246 28.6733 15.4489 28.5028 14.7547 28.5028C13.9589 28.5028 13.2914 28.6925 12.7568 29.072C12.2223 29.4515 11.845 29.9631 11.6296 30.602C11.4119 31.2434 11.3031 31.9039 11.3031 32.5837C11.3031 33.4604 11.4314 34.2266 11.6877 34.8799C11.944 35.5356 12.3432 36.0232 12.885 36.3475C13.4268 36.6717 14.0121 36.8326 14.6434 36.8326C15.4126 36.8326 16.0609 36.6117 16.593 36.1721C17.1252 35.7301 17.4856 35.0769 17.6742 34.2073H17.6742ZM21.0411 27.5084H27.5284V37.8271H26.1497V28.719H22.4199V34.0344C22.4199 35.1153 22.369 35.9055 22.2675 36.4075C22.1659 36.912 21.9507 37.3011 21.6241 37.5821C21.2976 37.8607 20.8815 38 20.3808 38C20.076 38 19.7108 37.9376 19.2851 37.8126L19.5318 36.602C19.7568 36.7174 19.9503 36.775 20.1099 36.775C20.4196 36.775 20.6542 36.6597 20.809 36.4268C20.9638 36.1937 21.0411 35.6461 21.0411 34.7814V27.5084V27.5084ZM28.7451 27.5084H30.1286L33.5319 33.8518L36.4901 27.5084H37.8446L33.9527 35.5356C33.4666 36.5396 33.0674 37.1977 32.7554 37.5077C32.4434 37.8175 31.9984 37.9712 31.4178 37.9712C31.0647 37.9712 30.6317 37.8895 30.1165 37.7262V36.5588C30.4842 36.7702 30.8736 36.8759 31.2847 36.8759C31.6186 36.8759 31.9064 36.7678 32.1508 36.5541C32.3925 36.3403 32.6611 35.8527 32.9538 35.0913L28.745 27.5084L28.7451 27.5084ZM39.0468 27.5084H45.7661V28.719H40.4255V37.8271H39.0468V27.5084ZM46.9055 27.5084H48.1536V35.6798L53.6853 27.5084H55.0472V37.8271H53.799V29.6773L48.2817 37.8271H46.9055V27.5084ZM61.3118 37.8271V27.5084H63.3726L65.8301 34.8126C66.0574 35.4924 66.2219 36.0016 66.326 36.3403C66.4445 35.9655 66.6308 35.4132 66.8822 34.6854L69.3833 27.5084H71.224V37.8271H69.9034V29.1946L66.8703 37.8271H65.6317L62.6324 29.036V37.8271H61.3118L61.3118 37.8271ZM72.2907 37.8271L76.2769 27.5084H77.7886L82.0191 37.8271H80.4542L79.2521 34.6998H74.8764L73.7493 37.8271H72.2907H72.2907ZM75.2803 33.59H78.8214L77.7379 30.7293C77.4113 29.8599 77.1646 29.1417 76.9928 28.5748C76.8502 29.2474 76.659 29.908 76.4196 30.5612L75.2803 33.59H75.2803ZM83.1681 37.8271V27.5084H84.5468V31.7598H89.9165V27.5084H91.2952V37.8271H89.9165V32.9704H84.5468V37.8271H83.1681ZM93.6198 27.5084H94.8679V35.6798L100.4 27.5084H101.761V37.8271H100.513V29.6773L94.9961 37.8271H93.6198V27.5084ZM104.038 27.5084H112.194V37.8271H110.815V28.719H105.416V37.8271H104.038V27.5084ZM113.403 27.5084H114.787L118.19 33.8518L121.148 27.5084H122.503L118.611 35.5356C118.125 36.5396 117.725 37.1977 117.413 37.5077C117.101 37.8175 116.656 37.9712 116.076 37.9712C115.723 37.9712 115.29 37.8895 114.775 37.7262V36.5588C115.142 36.7702 115.532 36.8759 115.943 36.8759C116.277 36.8759 116.564 36.7678 116.809 36.5541C117.051 36.3403 117.319 35.8527 117.612 35.0913L113.403 27.5084L113.403 27.5084ZM123.963 27.5084H130.451V37.8271H129.072V28.719H125.342V34.0344C125.342 35.1153 125.291 35.9055 125.19 36.4075C125.088 36.912 124.873 37.3011 124.546 37.5821C124.22 37.8607 123.804 38 123.303 38C122.998 38 122.633 37.9376 122.207 37.8126L122.454 36.602C122.679 36.7174 122.873 36.775 123.032 36.775C123.342 36.775 123.577 36.6597 123.731 36.4268C123.886 36.1937 123.963 35.6461 123.963 34.7814V27.5084V27.5084ZM140.934 37.8271V27.5084H136.328C135.402 27.5084 134.701 27.602 134.219 27.787C133.738 27.972 133.353 28.2987 133.065 28.767C132.778 29.2354 132.633 29.7542 132.633 30.321C132.633 31.0536 132.872 31.6709 133.348 32.173C133.825 32.6749 134.56 32.992 135.557 33.1289C135.192 33.3018 134.916 33.4747 134.727 33.6429C134.326 34.008 133.946 34.4667 133.59 35.0168L131.793 37.8271H133.51L134.884 35.6797C135.283 35.0577 135.615 34.5844 135.874 34.2554C136.135 33.9263 136.367 33.6981 136.573 33.5661C136.776 33.4364 136.986 33.345 137.199 33.2922C137.354 33.261 137.608 33.2442 137.964 33.2442H139.555V37.827H140.934L140.934 37.8271ZM139.555 32.0625H136.604C135.975 32.0625 135.487 31.9976 135.134 31.8679C134.78 31.7406 134.512 31.534 134.331 31.2482C134.147 30.9648 134.055 30.6573 134.055 30.3234C134.055 29.8358 134.231 29.4324 134.587 29.1177C134.943 28.803 135.504 28.6469 136.27 28.6469H139.555V32.0625H139.555ZM145.842 37.8271V28.719H142.417V27.5084H150.645V28.719H147.22V37.8271H145.842ZM150.991 32.8046C150.991 31.0945 151.456 29.7542 152.382 28.7861C153.309 27.8182 154.503 27.3354 155.969 27.3354C156.929 27.3354 157.793 27.5636 158.565 28.0176C159.334 28.4716 159.921 29.1057 160.325 29.9198C160.729 30.7317 160.932 31.6541 160.932 32.6845C160.932 33.7294 160.72 34.6661 160.294 35.4899C159.868 36.3162 159.266 36.9407 158.487 37.3635C157.706 37.7887 156.864 38 155.962 38C154.982 38 154.109 37.7646 153.338 37.2962C152.568 36.8279 151.983 36.189 151.586 35.3771C151.19 34.5676 150.991 33.7101 150.991 32.8046L150.991 32.8046ZM152.414 32.8286C152.414 34.0704 152.75 35.048 153.422 35.7614C154.095 36.4747 154.939 36.8326 155.955 36.8326C156.99 36.8326 157.839 36.4723 158.509 35.7518C159.177 35.0312 159.51 34.008 159.51 32.6822C159.51 31.8438 159.368 31.1113 159.082 30.4868C158.797 29.8623 158.378 29.3771 157.829 29.0337C157.278 28.6901 156.661 28.5171 155.976 28.5171C155.004 28.5171 154.167 28.8487 153.466 29.5116C152.764 30.1745 152.414 31.2795 152.414 32.8286H152.414ZM162.701 37.8271V27.5084H166.624C167.313 27.5084 167.841 27.542 168.206 27.6069C168.716 27.6909 169.144 27.8518 169.49 28.0872C169.836 28.325 170.114 28.6565 170.325 29.0816C170.535 29.5068 170.639 29.9751 170.639 30.4868C170.639 31.3611 170.359 32.1032 169.795 32.7085C169.234 33.3162 168.216 33.6189 166.745 33.6189H164.079V37.8271H162.701H162.701ZM164.079 32.4083H166.764C167.654 32.4083 168.283 32.245 168.658 31.916C169.031 31.5868 169.217 31.1257 169.217 30.5276C169.217 30.0977 169.108 29.7277 168.888 29.4203C168.668 29.1129 168.378 28.9087 168.02 28.8102C167.787 28.7502 167.359 28.719 166.738 28.719H164.079V32.4083H164.079ZM170.272 37.8271L174.258 27.5084H175.77L180 37.8271H178.435L177.233 34.6998H172.857L171.73 37.8271H170.272H170.272ZM173.261 33.59H176.802L175.719 30.7293C175.392 29.8598 175.146 29.1417 174.974 28.5748C174.831 29.2474 174.64 29.9079 174.4 30.5612L173.261 33.59H173.261Z" fill="#1D0C03"/>
</svg>
